<svg width="848" height="167" viewBox="0 0 848 167" fill="none" xmlns="http://www.w3.org/2000/svg">
<path fill-rule="evenodd" clip-rule="evenodd" d="M211.284 5.00733L169.154 164.067H128.178L105.88 76.2703L84.8157 164.067H42.0899L0 5.00733H45.9055L68.0433 96.3808L89.9826 5.00733H128.178L151.667 96.5797L173.924 5.00733H211.284ZM271.577 0V36.7238H225.075V0H271.577ZM271.577 45.5474V164.067H225.075V45.5474H271.577ZM411.559 164.067H365.057V89.4657C365.057 83.305 364.143 79.41 362.235 77.7007C360.327 75.9918 357.983 75.1179 355.121 75.1179C346.695 75.1179 342.482 81.0392 342.482 92.8437V164.067H295.98V45.5474H339.143V62.3199C345.503 49.5619 356.87 43.163 373.205 43.163C381.829 43.163 389.063 44.8317 395.025 48.1308C400.947 51.4295 405.2 55.6825 407.743 60.9288C410.287 66.1748 411.559 75.2766 411.559 88.2336V164.067Z" fill="white"/>
<path fill-rule="evenodd" clip-rule="evenodd" d="M440.466 164.067V5.00726H521.227C538 5.00726 550.242 9.22067 557.952 17.6863C565.623 26.152 569.478 35.8096 569.478 46.6599C569.478 54.5694 567.252 61.7235 562.801 68.1224C558.389 74.5215 551.752 78.9332 542.968 81.3572C563.516 86.3257 573.77 98.6864 573.77 118.44C573.77 130.283 570.153 140.816 562.88 150.116C555.607 159.417 540.066 164.067 516.259 164.067H440.466ZM485.298 65.8175H508.072C513.795 65.8175 517.81 64.3864 520.154 61.5246C522.499 58.6633 523.692 55.6029 523.692 52.3438C523.692 43.5202 518.207 39.1083 507.237 39.1083H485.298V65.8175ZM485.298 128.773H509.265C515.226 128.773 519.598 127.303 522.38 124.361C525.162 121.46 526.553 118.122 526.553 114.465C526.553 110.769 525.202 107.39 522.499 104.33C519.797 101.23 514.828 99.6801 507.635 99.6801H485.298V128.773ZM670.469 121.38L713.632 124.282C711.089 135.967 704.531 145.903 693.999 154.131C683.506 162.358 669.277 166.451 651.352 166.451C631.4 166.451 615.502 160.689 603.619 149.163C591.735 137.636 585.813 123.328 585.813 106.277C585.813 88.5513 591.656 73.6074 603.38 61.445C615.105 49.2434 630.765 43.163 650.319 43.163C669.237 43.163 684.539 48.8861 696.224 60.3719C707.909 71.8586 713.752 87.4784 713.752 107.232C713.752 108.861 713.712 111.126 713.632 113.988H634.461C634.62 121.5 635.931 127.064 638.435 130.721C640.9 134.337 645.629 136.165 652.624 136.165C662.759 136.165 668.681 131.238 670.469 121.38ZM667.131 90.6181C667.051 82.7086 665.462 77.3828 662.362 74.6805C659.261 71.938 655.406 70.5864 650.796 70.5864C639.905 70.5864 634.461 77.264 634.461 90.6181H667.131ZM777.662 5.00726V164.067H731.875V5.00726H777.662ZM847.891 5.00726V164.067H802.104V5.00726H847.891Z" fill="white"/>
</svg>
